<svg xmlns="http://www.w3.org/2000/svg" width="71" height="22" fill="none"><path fill="#fff" d="M27.792 16.064c-.267 0-.55-.021-.848-.064a2.881 2.881 0 0 1-.864-.304 1.8 1.8 0 0 1-.656-.72c-.17-.32-.256-.752-.256-1.296V6.672c0-.47.07-.864.208-1.184.15-.32.341-.57.576-.752a2.03 2.03 0 0 1 .784-.4c.299-.085.592-.128.88-.128.693.01 1.328.027 1.904.048.587.01 1.13.027 1.632.048.501.021.981.043 1.44.064v1.328h-4.544c-.395 0-.704.101-.928.304-.224.203-.336.523-.336.96v2.448l5.088.096v1.248l-5.088.112v2.416c0 .363.059.635.176.816a.948.948 0 0 0 .48.368c.203.064.416.096.64.096h4.512v1.328c-.49.032-1.008.064-1.552.096-.544.021-1.093.037-1.648.048-.544.021-1.077.032-1.6.032Zm9.15-.048c-.523 0-.966-.09-1.328-.272a1.76 1.76 0 0 1-.8-.864c-.171-.405-.257-.95-.257-1.632V3.792h1.6v9.248c0 .448.043.795.129 1.04.096.235.224.4.383.496.171.096.369.16.593.192l.8.096v1.152h-1.12Zm5.788.08c-.906 0-1.632-.133-2.176-.4-.533-.267-.917-.715-1.152-1.344-.224-.64-.336-1.52-.336-2.64 0-1.141.112-2.027.336-2.656.235-.64.619-1.088 1.152-1.344.534-.256 1.254-.384 2.16-.384.79 0 1.424.085 1.904.256.491.16.848.453 1.072.88.235.416.352.997.352 1.744 0 .523-.106.939-.32 1.248-.202.31-.496.533-.88.672-.373.139-.821.208-1.344.208h-2.832c.011.619.08 1.115.208 1.488.139.363.379.63.72.8.352.16.864.24 1.536.24h2.672v.96c-.458.064-.928.123-1.408.176-.48.064-1.034.096-1.664.096Zm-2.08-4.768h2.704c.427 0 .742-.08.944-.24.203-.16.304-.453.304-.88s-.064-.763-.192-1.008a1.038 1.038 0 0 0-.592-.528c-.277-.107-.645-.16-1.104-.16-.522 0-.938.08-1.248.24-.298.16-.512.443-.64.848-.117.405-.176.981-.176 1.728Zm10.529 4.768c-.501 0-.965-.064-1.392-.192a2.794 2.794 0 0 1-1.104-.688c-.31-.32-.55-.763-.72-1.328-.17-.565-.256-1.28-.256-2.144 0-.885.08-1.61.24-2.176.16-.576.39-1.024.688-1.344.31-.33.683-.56 1.12-.688a5.236 5.236 0 0 1 1.472-.192c.448 0 .917.021 1.408.064.501.043.987.112 1.456.208v.944h-2.416c-.523 0-.96.085-1.312.256-.352.16-.613.475-.784.944-.17.459-.256 1.125-.256 2 0 .843.09 1.493.272 1.952.181.448.443.752.784.912.352.16.79.24 1.312.24h2.528v.912a9.108 9.108 0 0 1-.88.176c-.33.043-.683.075-1.056.096-.363.032-.73.048-1.104.048Zm6.372 0c-.63 0-1.152-.187-1.568-.56-.406-.384-.608-.912-.608-1.584v-.672c0-.661.224-1.2.672-1.616.458-.427 1.146-.64 2.064-.64h2.672v-.896c0-.33-.059-.608-.176-.832-.107-.235-.31-.41-.608-.528-.299-.117-.742-.176-1.328-.176h-2.624v-.944c.384-.085.832-.16 1.344-.224.522-.064 1.13-.101 1.824-.112.704 0 1.29.09 1.76.272.48.17.837.459 1.072.864.234.395.352.923.352 1.584V16h-1.264l-.272-.944a9.252 9.252 0 0 1-.4.24 8.522 8.522 0 0 1-.784.352c-.31.128-.65.235-1.024.32-.363.085-.73.128-1.104.128Zm.736-1.168c.16.01.346-.005.56-.048.224-.043.442-.09.656-.144.224-.064.426-.128.608-.192.192-.064.346-.117.464-.16.128-.053.197-.085.208-.096v-2.464l-2.24.096c-.555.032-.955.17-1.2.416-.235.245-.352.565-.352.96v.384c0 .31.064.56.192.752.128.181.288.31.48.384.202.075.41.112.624.112ZM64.573 16V7.44h1.232l.368 1.44a5.649 5.649 0 0 1 1.216-1.104c.448-.299.97-.448 1.568-.448.139 0 .272.01.4.032.128.01.25.032.368.064v1.648a6.198 6.198 0 0 0-.464-.048 3.75 3.75 0 0 0-.496-.032c-.362 0-.688.043-.976.128a2.984 2.984 0 0 0-.832.4c-.256.17-.517.384-.784.64V16h-1.6ZM18.167 11.668a8.341 8.341 0 0 1-7 6.585v-1.688a6.675 6.675 0 0 0 5.29-4.898h1.71Zm-14.624 0a6.675 6.675 0 0 0 5.206 4.881v1.692a8.341 8.341 0 0 1-6.916-6.574h1.71ZM15 9.167v1.666h-.833A3.334 3.334 0 0 0 10.837 14l-.004.167V15H9.167v-.833A3.334 3.334 0 0 0 6 10.837l-.167-.004H5V9.167h10Zm-5-7.5c4.32 0 7.874 3.289 8.292 7.5h-1.677a6.668 6.668 0 0 0-13.23 0H1.708A8.335 8.335 0 0 1 10 1.667Z"/></svg>