<svg xmlns="http://www.w3.org/2000/svg" width="870" height="683" fill="none"><path stroke="url(#a)" stroke-opacity=".4" stroke-width="5" d="M341.681 428.548c2.751 6.365 5.962 19.496 7.751 23.681m0 0c12.008-5.963 27.643-13.17 46.471-18.429 18.828-5.258 22.743-6.719 29.744-6.515 16.601-.838 17.883-.542 21.517-.143m-97.732 25.087 19.949 39.467m77.783-64.554c1.829-.138 89.119-47.106 89.119-47.106l68.34-37.545 17.361-5.682m-174.82 90.333c-2.063 15.925-9.73 27.563-19.953 43.598m258.5-111.092-16.704-15.231-14.832-6.645m-95.888 86.579 10.029-16.622 29.321-6.376 39.472 28.937-32.784 56.726-28.522 49.352m-17.516-112.017-13.55 4.434-53.35 17.461c-4.194 1.633-24.849 13.526-32.665 16.21-7.816 2.685-11.559 4.935-32.603 10.671m132.168-48.776-43.379 76.573m-88.789-27.797-56.738 18.569m56.738-18.569 1.092-2.387m-57.83 20.956c6.44 2.492 34.379 19.106 34.379 19.106m-34.379-19.106-64.174 117.595m98.553-98.489 23.451-40.062m-23.451 40.062 24.262 14.138m55.094 32.104 61.215 33.78m-61.215-33.78 31.792-56.12m-31.792 56.12-31.118 53.88m31.118-53.88-39.678-23.121m100.893 56.901 31.472-54.456m-31.472 54.456 87.218 47.348m-87.218-47.348-32.117 55.128m2.694-145.028 60.895 35.444m0 0 60.339 30.918-4.593 70.886m0 0-43.758 52.499-75.577-44.719m0 0-60.216-35.028m60.216 35.028-29.486 58.866m-30.73-93.894-40.548-20.766m40.548 20.766-24.285 59.004m-16.263-79.77 31.988-56.235m-31.988 56.235-10.9-6.091m42.888-50.144-15.416-8.983m0 0-27.472 59.127m0 0-27.626 55.957m0 0 54.789 29.904m-54.789-29.904-67.717-30.733m122.506 60.637 55.015 34.89m0 0 15.527 7.337M305.207 609.291l-27.475 43.49-54.696-26.715 28.997-51.807m86.852-147.095c31.739-10.905 47.385-15.979 72.827-23.836l113.665-66.638 66.725-43.916 35.195 21.598m0 0-5.313 22.437m5.313-22.437 12.047 16.755-17.36 5.682m-284.536 163.31-122.985 12.382-14.811 29.226 52.381 32.532m19.4 12.049-19.4-12.049"/><path stroke="url(#b)" stroke-opacity=".4" stroke-width="2" d="m346.119 439.193 37.303-10.396m12.842 4.892 7.338 14.065m39.749-18.957-39.749 18.957m75.828-35.468-10.395-15.9 42.194-15.899 28.742 26.907-81.332 40.36m-40.972 68.49 11.007-16.511-7.338-17.122 88.226-25.99m-85.78-7.644-2.446-.148m-17.734-1.075 17.734 1.075m-61.152 18.494 29.353-10.702 31.799 3.975v-11.767m-31.799 57.02-20.792 44.029 19.569 7.95 22.015-39.749m7.338 7.338-14.065 24.461m93.563-73.994 22.626 12.842m-22.626-12.842 24.794-38.526m-24.794 38.526-20.181 33.634m-53.202-2.446 45.253 26.907m-17.123-26.907 45.253 26.907m-128.42-53.814 14.677-6.115m207.305-72.16-10.396 20.18m-13.453 70.937-17.734-10.396 20.791-40.361m-3.057 50.757 23.849-44.03m-23.849 44.03c-4.892 25.684 10.12 20.229 5.504 19.568m-5.504-19.568 74.164 38.995m-50.315-83.025-20.792-6.727m20.792 6.727 14.677 7.644m-35.469-14.371 10.396-20.18m0 0 37.303 15.288-12.23 19.263m0 0-14.677 25.99-14.574-6.727m-63.089 94.174c1.468-1.467 12.842-20.995 18.346-30.576l29.964 15.288-12.23 23.238-45.253-23.238m-75.217 0 17.123 8.562m0 0v-15.9l18.345 10.396-18.345 34.245v-28.741Zm0 0-14.065 20.18m62.986-17.734-17.734 34.856m0 0 26.907 13.454-9.173-27.519m-17.734 14.065-7.949 9.173 34.856 20.18 13.454-29.353-22.627-14.065m-17.734 14.065 17.734-14.065m-17.734 14.065-12.842-5.503m30.576-8.562-20.791-13.453c-24.763-8.096-37.271-20.823-67.267 2.233m-80.11 2.659c9.539 8.503 16.259 12.577 33.634 17.123l-11.619 14.676c-3.338 5.946-5.727 8.648-33.022-14.676l11.007-17.123Zm0 0c53.618 9.539 69.628 8.232 80.11-2.659m0 0c8.805 20.228 6.115 37.108 3.669 43.019l-33.634-14.065-4.281 5.504 31.188 13.454-9.784 26.906-49.534 42.195-33.633-35.468m0 0-14.677-15.288m14.677 15.288-14.677 16.511-16.511-9.784 16.511-22.015m0 0s-1.223-15.899 14.677-18.345c15.899-2.447 23.238 12.841 23.238 12.841.311 6.295-5.182 8.271-37.915 5.504Zm-16.511-107.627 51.368 20.791-53.202 97.232-9.173-1.835 94.786-170.002-20.181-53.814-92.951 45.252 6.116 11.008 112.519 6.115m-163.887-6.115 25.072 28.741 17.123 6.727-8.154 12.23m0 0-5.3 7.95-12.23-4.28 4.281-8.562 13.249 4.892Zm-8.969 31.188s-8.561 5.504-8.561 16.511 12.23 26.295 12.23 26.295l-7.949 18.958s-9.785 6.115-11.619-4.893c-1.835-11.007 27.518-48.921 27.518-48.921m229.32 88.67-11.619 10.798m-80.109 44.239 44.641 33.022 28.13-31.799-58.094-36.691-12.842 14.676 29.353 22.015 48.921-45.462m-80.109 44.239 38.526-35.468-23.849-14.065-33.634 36.08 18.957 13.453Zm66.656-49.533 13.453-22.015 30.576 16.511-20.791 19.569m0 0-9.785-8.771m9.785 8.771 11.007 11.619 44.641-28.839m0 0 24.461-15.802 28.13 18.957-36.08 31.187-33.634-25.893 17.123-8.449Zm0 0 16.511 20.277 24.461 27.519 56.871-73.994-22.015-11.007 20.181-25.073m-35.469 15.9 18.346-27.519-14.676-8.561 15.899-25.072"/><g filter="url(#c)"><path fill="#054ACA" fill-opacity=".4" d="M461.686 360.397c141.364-91.395 118.694-79.204 180.826-128.799V100.262c-36.916 30.601-131.538 103.107-146.249 109.14-14.71 6.033-144.427 42.406-227.112 66.696l-164.744 43.104 63.151 171.725c109.808-48.023 168.419-73.222 294.128-130.53Z"/></g><path stroke="url(#d)" stroke-opacity=".5" stroke-width="5" d="m252.626 272.871-16.841 5.673-160.478 37.389 2.377-79.627 146.394-50.78 28.548 87.345Zm0 0 101.625-34.237 4.646-1.565m54.006-18.195 84.784-28.563 24.74-17.035m-109.524 45.598-19.864-48.439-37.51-30.223-45.45 10.047 20.942 31.729 10.209 24.895 17.667 30.186m54.006-18.195-54.006 18.195m163.53-63.793 77.31-53.235-63.907-62.359-92.517 56.446c23.381 17.261 71.938 53.254 79.114 59.148Z"/><path stroke="#054ACA" stroke-opacity=".2" stroke-width="2" d="m202.411 222.102 40.36-12.23 19.569 56.26-31.187 14.065-8.562-20.181 51.368-69.713 54.425-11.619 7.338 15.288 47.699-9.173 11.619 22.015 12.842-4.28-4.579-8.562m0 0-9.486-17.734 30.576-5.504 9.173 19.569-30.263 3.669Zm11.917-12.23 96.009 3.057"/><path stroke="#054ACA" stroke-opacity=".3" stroke-width="2" d="m374.304 637.496 53.814-111.908-58.095-33.634-19.568-39.749 19.568-9.784"/><g filter="url(#e)"><circle cx="366.611" cy="490.837" r="14.212" fill="#054ACA"/></g><circle cx="366.611" cy="490.837" r="19.592" stroke="#fff"/><path stroke="#0059FF" stroke-linecap="round" stroke-width="4" d="m547.931 155.149-50.965 35.284-139.176 46.065-16.662-28.913-12.252-29.404-46.065 9.802"/><circle cx="550.382" cy="152.208" r="21.563" fill="#0059FF" fill-opacity=".25"/><g filter="url(#f)"><path fill="#fff" d="M540.287 162.535c-.856.249-1.585-.662-1.155-1.443l11.783-21.38c.436-.792 1.618-.643 1.844.234l2.468 9.578c.072.278.26.512.516.642l7.605 3.864c.808.411.697 1.599-.174 1.852l-22.887 6.653Z"/></g><path fill="#034EDA" fill-opacity=".33" stroke="#fff" d="M300.933 189.453c0 14.88-12.063 26.943-26.943 26.943s-26.943-12.063-26.943-26.943c0-14.881 12.063-26.943 26.943-26.943s26.943 12.062 26.943 26.943Z"/><g filter="url(#g)"><circle cx="273.5" cy="188.963" r="14.212" fill="#054ACA"/></g><defs><filter id="c" width="538.105" height="394.664" x="104.407" y="100.262" color-interpolation-filters="sRGB" filterUnits="userSpaceOnUse"><feFlood flood-opacity="0" result="BackgroundImageFix"/><feBlend in="SourceGraphic" in2="BackgroundImageFix" result="shape"/><feColorMatrix in="SourceAlpha" result="hardAlpha" values="0 0 0 0 0 0 0 0 0 0 0 0 0 0 0 0 0 0 127 0"/><feOffset dy="4"/><feGaussianBlur stdDeviation="2"/><feComposite in2="hardAlpha" k2="-1" k3="1" operator="arithmetic"/><feColorMatrix values="0 0 0 0 0 0 0 0 0 0 0 0 0 0 0 0 0 0 0.25 0"/><feBlend in2="shape" result="effect1_innerShadow_122_180"/></filter><filter id="e" width="124.423" height="124.423" x="304.399" y="432.625" color-interpolation-filters="sRGB" filterUnits="userSpaceOnUse"><feFlood flood-opacity="0" result="BackgroundImageFix"/><feColorMatrix in="SourceAlpha" result="hardAlpha" values="0 0 0 0 0 0 0 0 0 0 0 0 0 0 0 0 0 0 127 0"/><feOffset dy="4"/><feGaussianBlur stdDeviation="24"/><feComposite in2="hardAlpha" operator="out"/><feColorMatrix values="0 0 0 0 0.0211112 0 0 0 0 0.290806 0 0 0 0 0.791667 0 0 0 1 0"/><feBlend in2="BackgroundImageFix" result="effect1_dropShadow_122_180"/><feBlend in="SourceGraphic" in2="effect1_dropShadow_122_180" result="shape"/><feColorMatrix in="SourceAlpha" result="hardAlpha" values="0 0 0 0 0 0 0 0 0 0 0 0 0 0 0 0 0 0 127 0"/><feOffset dy="4"/><feGaussianBlur stdDeviation="2"/><feComposite in2="hardAlpha" k2="-1" k3="1" operator="arithmetic"/><feColorMatrix values="0 0 0 0 0 0 0 0 0 0.177917 0 0 0 0 0.508333 0 0 0 1 0"/><feBlend in2="shape" result="effect2_innerShadow_122_180"/></filter><filter id="f" width="46.89" height="45.382" x="528.005" y="126.195" color-interpolation-filters="sRGB" filterUnits="userSpaceOnUse"><feFlood flood-opacity="0" result="BackgroundImageFix"/><feColorMatrix in="SourceAlpha" result="hardAlpha" values="0 0 0 0 0 0 0 0 0 0 0 0 0 0 0 0 0 0 127 0"/><feOffset dy="-2"/><feGaussianBlur stdDeviation="5.5"/><feComposite in2="hardAlpha" operator="out"/><feColorMatrix values="0 0 0 0 1 0 0 0 0 1 0 0 0 0 1 0 0 0 0.57 0"/><feBlend in2="BackgroundImageFix" result="effect1_dropShadow_122_180"/><feBlend in="SourceGraphic" in2="effect1_dropShadow_122_180" result="shape"/></filter><filter id="g" width="124.423" height="124.423" x="211.288" y="130.751" color-interpolation-filters="sRGB" filterUnits="userSpaceOnUse"><feFlood flood-opacity="0" result="BackgroundImageFix"/><feColorMatrix in="SourceAlpha" result="hardAlpha" values="0 0 0 0 0 0 0 0 0 0 0 0 0 0 0 0 0 0 127 0"/><feOffset dy="4"/><feGaussianBlur stdDeviation="24"/><feComposite in2="hardAlpha" operator="out"/><feColorMatrix values="0 0 0 0 0.0211112 0 0 0 0 0.290806 0 0 0 0 0.791667 0 0 0 1 0"/><feBlend in2="BackgroundImageFix" result="effect1_dropShadow_122_180"/><feBlend in="SourceGraphic" in2="effect1_dropShadow_122_180" result="shape"/></filter><linearGradient id="a" x1="414.055" x2="531.264" y1="351.046" y2="709.171" gradientUnits="userSpaceOnUse"><stop stop-color="#054ACA"/><stop offset="1" stop-color="#054ACA" stop-opacity=".05"/></linearGradient><linearGradient id="b" x1="413.692" x2="413.692" y1="380.487" y2="746.176" gradientUnits="userSpaceOnUse"><stop stop-color="#054ACA"/><stop offset="1" stop-color="#054ACA" stop-opacity=".05"/></linearGradient><linearGradient id="d" x1="306.547" x2="350.863" y1="142.454" y2="250.52" gradientUnits="userSpaceOnUse"><stop stop-color="#054ACA" stop-opacity="0"/><stop offset="1" stop-color="#054ACA"/></linearGradient></defs></svg>