<svg xmlns="http://www.w3.org/2000/svg" width="15" height="14" fill="none"><path fill="#fff" d="M7.5.333a6.667 6.667 0 1 1 0 13.333A6.667 6.667 0 0 1 7.5.333Zm0 1.334a5.333 5.333 0 1 0 0 10.666 5.333 5.333 0 0 0 0-10.666Zm2.555 2.224a.397.397 0 0 1 .623.29.393.393 0 0 1-.072.262C9.153 6.473 8.353 7.56 8.207 7.707a1.001 1.001 0 0 1-1.414-1.414c.249-.249 1.336-1.05 3.262-2.402Zm1.112 2.442a.667.667 0 1 1 0 1.334.667.667 0 0 1 0-1.334Zm-7.334 0a.667.667 0 1 1 0 1.334.667.667 0 0 1 0-1.334ZM5.38 3.936a.667.667 0 1 1-.944.943.667.667 0 0 1 .944-.943ZM7.5 2.666A.667.667 0 1 1 7.5 4a.667.667 0 0 1 0-1.333Z"/></svg>